<svg width="45" height="35" viewBox="0 0 45 35" fill="none" xmlns="http://www.w3.org/2000/svg">
<path d="M38.0953 2.84318C35.1779 1.50413 32.099 0.549282 28.9359 0.00255871C28.907 -0.00306074 28.8772 0.000629808 28.8505 0.0130984C28.8239 0.0255671 28.8019 0.0461693 28.7878 0.0719336C28.394 0.775059 27.9553 1.69193 27.6478 2.41568C24.238 1.89778 20.7695 1.89778 17.3597 2.41568C17.0174 1.61375 16.6312 0.831309 16.2028 0.0719336C16.188 0.0467462 16.1659 0.0266323 16.1395 0.0142464C16.113 0.00186061 16.0835 -0.00221464 16.0547 0.00255871C12.8912 0.548146 9.81227 1.50304 6.89528 2.84318C6.87058 2.85354 6.84964 2.87121 6.83528 2.89381C1.00028 11.6107 -0.599099 20.1119 0.186526 28.5063C0.188435 28.5271 0.194574 28.5474 0.204568 28.5657C0.214563 28.5841 0.228202 28.6003 0.244651 28.6132C3.64139 31.1298 7.44111 33.0509 11.4815 34.2944C11.51 34.3027 11.5403 34.3021 11.5684 34.2927C11.5966 34.2833 11.6212 34.2656 11.639 34.2419C12.5076 33.0616 13.2766 31.811 13.9378 30.5032C13.947 30.4853 13.9523 30.4656 13.9534 30.4455C13.9545 30.4254 13.9513 30.4053 13.944 30.3865C13.9367 30.3678 13.9256 30.3507 13.9112 30.3366C13.8969 30.3224 13.8798 30.3115 13.8609 30.3044C12.6486 29.8405 11.4749 29.2813 10.3509 28.6319C10.3303 28.62 10.313 28.6032 10.3004 28.583C10.2879 28.5627 10.2806 28.5397 10.2791 28.5159C10.2776 28.4922 10.282 28.4684 10.2919 28.4468C10.3018 28.4252 10.3169 28.4063 10.3359 28.3919C10.5726 28.2148 10.8052 28.0323 11.0334 27.8444C11.0534 27.8282 11.0774 27.8179 11.1029 27.8146C11.1284 27.8113 11.1543 27.8151 11.1778 27.8257C18.5428 31.1876 26.5153 31.1876 33.794 27.8257C33.8177 27.8147 33.844 27.8107 33.8698 27.814C33.8957 27.8173 33.9201 27.8279 33.9403 27.8444C34.1653 28.0282 34.4015 28.2157 34.6397 28.3919C34.6584 28.4061 34.6734 28.4246 34.6834 28.4459C34.6933 28.4671 34.698 28.4905 34.6969 28.514C34.6958 28.5374 34.6889 28.5603 34.677 28.5805C34.6651 28.6007 34.6484 28.6177 34.6284 28.6301C33.507 29.2855 32.3322 29.845 31.1165 30.3026C31.0976 30.3098 31.0804 30.321 31.0661 30.3353C31.0517 30.3496 31.0406 30.3668 31.0333 30.3857C31.0261 30.4046 31.0229 30.4249 31.024 30.4451C31.0251 30.4654 31.0304 30.4851 31.0397 30.5032C31.7147 31.8119 32.4871 33.0569 33.3365 34.2401C33.354 34.2642 33.3786 34.2822 33.4068 34.2916C33.4351 34.301 33.4656 34.3014 33.494 34.2926C37.5412 33.0529 41.3471 31.1315 44.7478 28.6113C44.7643 28.5996 44.7782 28.5845 44.7886 28.5671C44.7989 28.5496 44.8054 28.5302 44.8078 28.5101C45.7453 18.8032 43.2365 10.3713 38.1534 2.89756C38.1415 2.87235 38.1209 2.85423 38.0953 2.84318ZM15.0384 23.3932C12.8203 23.3932 10.994 21.3588 10.994 18.8576C10.994 16.3582 12.7865 14.3219 15.0384 14.3219C17.3072 14.3219 19.1184 16.3769 19.0828 18.8594C19.0828 21.3588 17.2903 23.3932 15.0384 23.3932ZM29.9915 23.3932C27.7734 23.3932 25.9472 21.3588 25.9472 18.8576C25.9472 16.3582 27.7378 14.3219 29.9915 14.3219C32.2603 14.3219 34.0715 16.3769 34.0359 18.8594C34.0359 21.3588 32.2622 23.3932 29.9915 23.3932Z" fill="white"/>
</svg>
