<svg width="54" height="54" viewBox="0 0 54 54" fill="none" xmlns="http://www.w3.org/2000/svg">
<path d="M44.8876 13.4836C45.7261 14.3273 46.1901 15.44 46.1901 16.6318C46.1901 17.8236 45.7261 18.9363 44.8876 19.7801L41.6761 22.9916C41.9397 24.1043 42.0769 25.2645 42.0769 26.451V31.1918C42.0769 32.3678 41.9397 33.5121 41.6866 34.609C41.4335 35.7059 41.0538 36.7605 40.5739 37.752L42.2983 39.4764C44.3181 41.4961 44.3181 44.7814 42.2983 46.8012C41.3175 47.782 40.0202 48.3199 38.6386 48.3199C37.2569 48.3199 35.9544 47.782 34.9788 46.8012L33.1437 44.966C32.3263 45.3299 31.472 45.6252 30.586 45.8414L29.7054 48.0984C28.8616 50.2553 27.6487 50.577 27.0054 50.577C26.3567 50.577 25.1491 50.2553 24.3054 48.0984L23.4142 45.8467C22.5282 45.6305 21.6739 45.3352 20.8565 44.9713L19.0214 46.8064C18.0405 47.7873 16.7433 48.3252 15.3616 48.3252C13.98 48.3252 12.6774 47.7873 11.7019 46.8064C10.721 45.8309 10.1831 44.5283 10.1831 43.1467C10.1831 41.765 10.721 40.4625 11.7019 39.4869L13.4263 37.7625C12.4612 35.7744 11.9233 33.549 11.9233 31.1971V26.4563C11.9233 25.2645 12.0604 24.1096 12.3241 22.9969L9.1126 19.7854C8.27412 18.9416 7.81006 17.8289 7.81006 16.6371C7.81006 15.4506 8.27412 14.3326 9.1126 13.4889C9.95107 12.6504 11.069 12.1863 12.2608 12.1863C13.4526 12.1863 14.5653 12.6504 15.4091 13.4889L17.0544 15.1342C17.7347 14.533 18.4729 13.9951 19.2534 13.5258C20.0339 13.0564 20.8618 12.6557 21.7267 12.3287V8.70059C21.7267 5.78965 24.0944 3.42188 27.0054 3.42188C29.9058 3.42188 32.2735 5.78965 32.2735 8.70059V12.3234C34.0032 12.9721 35.5853 13.9318 36.9458 15.1289L38.5911 13.4836C39.4296 12.6451 40.5476 12.1811 41.7394 12.1811C42.9259 12.1811 44.0438 12.6451 44.8876 13.4836Z" fill="white"/>
<path d="M43.374 14.9967C43.8117 15.4344 44.0543 16.0145 44.0543 16.6314C44.0543 17.2484 43.8117 17.8338 43.374 18.2662L40.9377 20.7025C40.6318 19.959 40.2627 19.2471 39.8461 18.5668C39.4295 17.8918 38.9602 17.2484 38.4434 16.6473L40.0939 14.9967C40.5316 14.559 41.1117 14.3164 41.7287 14.3164C42.3562 14.3164 42.9363 14.559 43.374 14.9967ZM40.7848 40.9947C41.9713 42.1813 41.9713 44.1113 40.7848 45.2979C40.21 45.8727 39.4453 46.1891 38.6332 46.1891C37.8211 46.1891 37.0564 45.8727 36.4816 45.2979L35.0947 43.9109C35.9543 43.3572 36.7611 42.7244 37.4941 42.0125C38.2271 41.3006 38.8863 40.5201 39.4611 39.6711L40.7848 40.9947Z" fill="black"/>
<path d="M39.9412 29.8906V31.1932C39.9412 35.1641 38.143 38.7236 35.3164 41.102L31.915 35.2115L34.9895 29.8906H39.9412Z" fill="black"/>
<path d="M39.9411 26.451V27.7535H34.9841L32.0151 22.6066L35.4481 16.6582C38.2009 19.0313 39.9411 22.5434 39.9411 26.451Z" fill="black"/>
<path d="M33.7129 15.3885L30.2641 21.3686H23.9254L20.4238 15.3041C21.3889 14.7346 22.433 14.2811 23.5352 13.9752C24.6373 13.6693 25.7975 13.5059 26.9998 13.5059C29.4572 13.5059 31.7564 14.1967 33.7129 15.3885Z" fill="black"/>
<path d="M30.0691 36.2762L33.5707 42.3406C33.3967 42.4408 33.2227 42.541 33.0434 42.6359H33.0381C32.9273 42.6992 32.8113 42.752 32.6953 42.81C30.9762 43.6643 29.0408 44.1389 26.9947 44.1389C24.9539 44.1389 23.0186 43.6643 21.2941 42.8152C21.1781 42.7572 21.0621 42.7045 20.9514 42.6412C20.8248 42.5727 20.693 42.5041 20.5664 42.4303L24.1154 36.2762H30.0691ZM30.0691 23.5039L33.1383 28.8248L30.0691 34.1404H23.9256L20.8564 28.8248L23.9256 23.5039H30.0691Z" fill="black"/>
<path d="M30.1376 9.36992V11.7008C29.6313 11.5953 29.1146 11.5109 28.5925 11.4529C28.0704 11.4002 27.5378 11.3686 26.9999 11.3686C25.9241 11.3686 24.8694 11.4793 23.8569 11.7008V9.36992C24.031 9.50703 24.2472 9.59141 24.4845 9.59141C25.0382 9.59141 25.4864 9.14316 25.4864 8.58945C25.4864 8.03574 25.0382 7.5875 24.4845 7.5875C24.3157 7.5875 24.1575 7.62969 24.0151 7.70352C24.4317 6.45898 25.6077 5.5625 26.9946 5.5625C28.3763 5.5625 29.5522 6.46426 29.9741 7.70352C29.837 7.62969 29.6788 7.5875 29.5101 7.5875C28.9563 7.5875 28.5081 8.03574 28.5081 8.58945C28.5081 9.14316 28.9563 9.59141 29.5101 9.59141C29.7474 9.59141 29.9636 9.50703 30.1376 9.36992ZM28.1337 46.2313L27.7065 47.3229C27.406 48.098 27.1054 48.3775 26.9946 48.4355C26.8839 48.3775 26.5833 48.0928 26.2827 47.3229L25.8556 46.2313C26.23 46.2576 26.6097 46.2734 26.9946 46.2734C27.3796 46.2734 27.7593 46.2629 28.1337 46.2313Z" fill="black"/>
<path d="M19.0055 29.8906L22.1748 35.3803L18.8051 41.2127C17.3549 40.0262 16.1684 38.5285 15.3404 36.8252C14.5125 35.1219 14.0537 33.2129 14.0537 31.1932V29.8906H19.0055Z" fill="black"/>
<path d="M18.6731 16.543L22.0745 22.4334L19.0054 27.749H14.0483V26.4465C14.0536 22.4809 15.8466 18.9213 18.6731 16.543Z" fill="black"/>
<path d="M18.8946 43.9109L17.5077 45.2926C16.9329 45.8674 16.1683 46.1838 15.3562 46.1838C14.544 46.1838 13.7794 45.8674 13.2046 45.2926C12.6298 44.7178 12.3134 43.9531 12.3134 43.141C12.3134 42.3289 12.6298 41.5643 13.2046 40.9895L14.5282 39.6658C15.103 40.5096 15.7675 41.2953 16.4952 42.0072C17.2282 42.7191 18.0298 43.3572 18.8946 43.9109ZM13.8901 14.9967L15.5407 16.6473C14.5071 17.8496 13.6634 19.2207 13.0517 20.7025L10.6153 18.2662C10.1776 17.8285 9.93506 17.2484 9.93506 16.6314C9.93506 16.0145 10.1776 15.4344 10.6153 14.9967C11.053 14.559 11.6331 14.3164 12.2501 14.3164C12.8671 14.3164 13.4524 14.559 13.8901 14.9967Z" fill="black"/>
</svg>
