<svg width="58" height="58" viewBox="0 0 58 58" fill="none" xmlns="http://www.w3.org/2000/svg">
<g clip-path="url(#clip0_246401_584)">
<path d="M50 26C52.206 26 54 24.206 54 22C54 19.794 52.206 18 50 18C47.794 18 46 19.794 46 22C46 24.206 47.794 26 50 26ZM50 20C51.103 20 52 20.897 52 22C52 23.103 51.103 24 50 24C48.897 24 48 23.103 48 22C48 20.897 48.897 20 50 20Z" fill="white"/>
<path d="M55.918 27.364C57.207 25.943 58 24.065 58 22C58 17.589 54.411 14 50 14C46.339 14 43.252 16.475 42.305 19.837L38.108 31.03C37.147 31.088 36.225 31.351 35.387 31.811L14.917 23.422C14.387 19.75 11.231 17 7.5 17C3.364 17 0 20.364 0 24.5C0 28.636 3.364 32 7.5 32C8.994 32 10.412 31.548 11.644 30.726L32.236 39.166C32.242 39.2 32.234 39.233 32.244 39.267C33.029 42.054 35.602 44 38.5 44C42.084 44 45 41.084 45 37.5C45 37.325 44.987 37.152 44.974 36.98L55.654 27.757C55.78 27.647 55.861 27.51 55.918 27.364ZM50 16C53.309 16 56 18.691 56 22C56 25.309 53.309 28 50 28C46.691 28 44 25.309 44 22C44 21.469 44.076 20.956 44.206 20.465L44.436 19.851C44.455 19.8 44.45 19.748 44.461 19.696C45.367 17.528 47.507 16 50 16ZM6.241 26.351C5.221 25.933 4.731 24.762 5.148 23.743C5.568 22.724 6.739 22.232 7.758 22.65L34.676 33.682C34.866 33.868 35.109 33.965 35.366 33.965L38.257 35.15C38.752 35.353 39.138 35.736 39.344 36.229C39.55 36.722 39.552 37.265 39.349 37.76C38.932 38.781 37.765 39.272 36.741 38.852L6.241 26.351ZM7.5 30C4.468 30 2 27.532 2 24.5C2 21.468 4.468 19 7.5 19C9.793 19 11.774 20.425 12.589 22.467L8.516 20.798C6.476 19.963 4.135 20.944 3.297 22.983C2.462 25.023 3.442 27.364 5.482 28.201L9.207 29.728C8.662 29.906 8.089 30 7.5 30ZM38.5 42C37.106 42 35.832 41.34 34.995 40.297L35.983 40.702C36.472 40.902 36.986 41.002 37.5 41.002C38.023 41.002 38.547 40.898 39.045 40.689C40.03 40.277 40.796 39.505 41.2 38.517C42.037 36.476 41.057 34.135 39.016 33.297L38.322 33.012C38.382 33.011 38.44 33 38.5 33C40.981 33 43 35.019 43 37.5C43 39.981 40.981 42 38.5 42ZM40.171 31.226L42.548 24.888C43.709 27.873 46.606 29.999 49.997 30L44.415 34.821C43.617 33.066 42.064 31.731 40.171 31.226Z" fill="white"/>
</g>
<defs>
<clipPath id="clip0_246401_584">
<rect width="58" height="58" fill="white"/>
</clipPath>
</defs>
</svg>
