<svg width="40" height="40" viewBox="0 0 40 40" fill="none" xmlns="http://www.w3.org/2000/svg">
<g clip-path="url(#clip0_246401_575)">
<path d="M7.30781 28.4611H15.0001V32.3072C15.0001 32.618 15.1878 32.8995 15.4747 33.018C15.5701 33.058 15.6701 33.0765 15.7693 33.0765C15.9693 33.0765 16.1663 32.998 16.3132 32.8511L20.7032 28.4611H29.2309C29.4347 28.4611 29.6309 28.3803 29.7747 28.2357L34.7747 23.2357C34.9193 23.0919 35.0001 22.8965 35.0001 22.6919V4.61493C35.0001 4.18955 34.6555 3.8457 34.2309 3.8457H7.30781C6.88319 3.8457 6.53857 4.18955 6.53857 4.61493V27.6919C6.53857 28.1172 6.88319 28.4611 7.30781 28.4611ZM8.07704 5.38416H33.4617V22.3734L28.9124 26.9226H20.3847C20.1809 26.9226 19.9847 27.0034 19.8409 27.148L16.5386 30.4503V27.6919C16.5386 27.2665 16.194 26.9226 15.7693 26.9226H8.07704V5.38416Z" fill="white"/>
<path d="M38.8463 0H3.8463C3.57246 0 3.31938 0.145385 3.18169 0.381538L0.489381 4.99692C0.420919 5.11462 0.384766 5.24846 0.384766 5.38462V33.8462C0.384766 34.2715 0.729381 34.6154 1.154 34.6154H9.61553V39.2308C9.61553 39.6562 9.96015 40 10.3848 40H15.7694C15.9594 40 16.1425 39.9292 16.284 39.8023L22.0478 34.6154H29.2309C29.424 34.6154 29.6101 34.5423 29.7517 34.4123L39.3671 25.5662C39.5255 25.4208 39.6155 25.2146 39.6155 25V0.769231C39.6155 0.343846 39.2709 0 38.8463 0ZM38.0771 24.6631L28.9309 33.0769H21.7525C21.5625 33.0769 21.3794 33.1477 21.2378 33.2746L15.474 38.4615H11.154V33.8462C11.154 33.4208 10.8094 33.0769 10.3848 33.0769H1.92323V5.59308L4.28784 1.53846H38.0771V24.6631Z" fill="white"/>
<path d="M16.5388 21.5385H19.6157C20.0403 21.5385 20.3849 21.1946 20.3849 20.7692V10.7692C20.3849 10.3438 20.0403 10 19.6157 10H16.5388C16.1141 10 15.7695 10.3438 15.7695 10.7692V20.7692C15.7695 21.1946 16.1141 21.5385 16.5388 21.5385ZM17.308 11.5385H18.8465V20H17.308V11.5385Z" fill="white"/>
<path d="M24.2311 21.5385H27.3081C27.7327 21.5385 28.0773 21.1946 28.0773 20.7692V10.7692C28.0773 10.3438 27.7327 10 27.3081 10H24.2311C23.8065 10 23.4619 10.3438 23.4619 10.7692V20.7692C23.4619 21.1946 23.8065 21.5385 24.2311 21.5385ZM25.0004 11.5385H26.5388V20H25.0004V11.5385Z" fill="white"/>
</g>
<defs>
<clipPath id="clip0_246401_575">
<rect width="40" height="40" fill="white"/>
</clipPath>
</defs>
</svg>
